<svg id="Capa_1" enable-background="new 0 0 512.003 512.003" height="512" viewBox="0 0 512.003 512.003" width="512" xmlns="http://www.w3.org/2000/svg"><path d="m349.992 226.351c-6.84 7.16-9.21 17.1-14.31 25.37-5.36 8.7-12.77 16.41-20.73 22.77-16.15 12.89-36.58 20.19-57.22 20.69-.67.02-1.33.03-2 .03-.58 0-1.16-.01-1.74-.03-20.64-.5-41.07-7.8-57.22-20.69-7.96-6.36-15.37-14.07-20.73-22.77-5.09-8.27-7.46-18.21-14.31-25.37-18.52-19.37-22.14-46.58-7.92-69.75 2.08-3.4 3.85-7.01 4.94-11.08.17-.65 2.3-11.72 2.11-11.72h7.51 87.07.59 87.06 7.77c-.19 0 1.94 11.07 2.11 11.72 1.09 4.07 2.86 7.68 4.94 11.08 14.22 23.171 10.6 50.38-7.92 69.75z" fill="#868eaf"/><path d="m502.002 492.142v.04h-491.981c-.02 0-.02-.02-.02-.04-.01-.11.03-.46.11-1.02.82-7.58 6.73-54.96 29.3-93.89 9.54-16.32 22.28-30.77 37.34-42.2 10.86-8.9 23.44-15.11 35.74-19.44 0 0 55.32 13.79 101.44 50.65 24.82 19.84 59.99 19.84 84.81.01 46.12-36.87 101.37-50.86 101.37-50.86-.02-.07.03.06 0 0 11.91 4.4 24.49 10.82 35.9 20.17 14.64 11.58 27.14 25.53 36.58 41.67 22.57 38.93 28.48 86.31 29.3 93.89.08.559.121.909.111 1.02z" fill="#b5bccf"/><path d="m319.346 325.092c-39.148 22.806-87.533 22.808-126.682.004l-.008-.004-.01-54.09c16.81 15.05 39.01 24.21 63.35 24.21 24.35 0 46.56-9.16 63.37-24.23l-.01 54.13z" fill="#ffd0c6"/><g fill="#868eaf"><path d="m357.714 133.8h-204.047c-6.264 0-11.342-5.078-11.342-11.342v-17.072c0-6.264 5.078-11.342 11.342-11.342h204.047c6.264 0 11.342 5.078 11.342 11.342v17.072c0 6.264-5.078 11.342-11.342 11.342z"/><path d="m349.656 94.044h-187.931c0-40.992 33.231-74.223 74.223-74.223h39.485c40.992 0 74.223 33.231 74.223 74.223z"/><path d="m400.112 335.392s-55.248 13.986-101.375 50.856c-24.817 19.837-59.99 19.836-84.807-.002-46.122-36.869-101.439-50.654-101.439-50.654 15.15-49.65 80.15-52.92 80.15-52.92l.01 10.72.01 31.7c39.15 22.81 87.54 22.81 126.68 0l.01-31.7.01-10.72c.001-.001 65.601 3.07 80.751 52.72z"/></g><circle cx="217.186" cy="156.94" fill="#ffd0c6" r="23.14"/><circle cx="295.982" cy="156.94" fill="#ffd0c6" r="23.14"/><ellipse cx="256.368" cy="232.655" fill="#ffd0c6" rx="39.582" ry="25.433"/><path d="m511.815 489.88c-.779-7.124-5.219-42.148-20.223-76.963-2.186-5.072-8.067-7.411-13.142-5.226-5.071 2.186-7.411 8.069-5.226 13.141 10.285 23.865 15.204 47.849 17.355 61.35h-45.02v-20.115c0-5.523-4.478-10-10-10s-10 4.477-10 10v20.115h-159.556v-71.67c1.387-.175 2.767-.396 4.141-.645 12.666-2.297 24.704-7.705 34.841-15.804 28.381-22.689 60.751-36.487 80.155-43.423 4.781-1.708 9.603-3.3 14.475-4.73 7.474 2.968 14.451 6.537 20.776 10.632 4.638 3.002 10.828 1.675 13.829-2.96 3.001-4.636 1.676-10.828-2.96-13.829-7.12-4.609-14.909-8.632-23.201-11.999-14.907-39.384-57.298-50.679-77.44-53.858 5.382-5.361 9.936-11.021 13.572-16.925 2.257-3.657 3.952-7.368 5.592-10.957 2.237-4.897 4.352-9.523 7.438-12.755 22.001-23.014 25.617-55.158 9.22-81.876-1.832-2.994-3.028-5.622-3.741-8.195 9.366-2.255 16.355-10.681 16.355-20.729v-17.072c0-11.317-8.861-20.578-20.006-21.274-4.933-41.774-40.539-74.291-83.617-74.291h-39.485c-43.078 0-78.684 32.517-83.617 74.291-11.145.695-20.005 9.957-20.005 21.274v17.072c0 10.162 7.145 18.673 16.671 20.811-.73 2.582-1.914 5.17-3.708 8.102-16.407 26.733-12.79 58.877 9.217 81.894 3.097 3.237 5.213 7.872 7.454 12.777 1.633 3.577 3.322 7.275 5.568 10.924 3.656 5.934 8.238 11.62 13.655 17.005-20.063 3.292-61.773 14.761-76.612 53.904-13.072 5.066-24.503 11.539-34.011 19.302-15.875 12.08-29.627 27.639-39.799 45.039-23.271 40.14-29.517 88.013-30.573 97.664-.132.94-.229 1.824-.169 2.838.299 5.258 4.674 9.464 10.003 9.464h491.98c5.345 0 9.711-4.231 9.986-9.51.055-.995-.042-1.867-.172-2.793zm-308.293-123.63c-16.605-11.138-34.444-20.422-52.906-28.074 17.176-2.093 33.361-2.801 39.567-3.01 9.916 5.492 20.357 9.662 31.078 12.489 17.053 4.498 34.797 5.628 52.197 3.383 13.622-1.766 26.971-5.599 39.444-11.352 2.762-1.274 8.841-4.479 8.841-4.479 16.335.163 29.818 1.604 40.326 2.855-23.191 9.674-45.466 21.895-65.459 37.166-14.309 10.929-29.709 17.985-48.18 15.393-18.12-2.543-30.367-14.618-44.908-24.371zm50.18-61.072c1.445.048 2.845.034 4.288 0 18.227-.344 35.888-5.382 51.368-14.527l-.015 28.533c-2.085 1.082-4.195 2.096-6.328 3.042-23.584 10.46-49.901 12.66-74.637 6.608-8.84-2.164-17.479-5.378-25.718-9.651l-.008-25.794c0-.006-.001-.012-.001-.019v-2.712c15.35 9.063 32.835 14.092 50.883 14.513.056.001.111.005.168.007zm127.393 15.452c-19.174-3.368-39.858-4.702-51.737-5.221l.004-21.39c13.641 2.437 37.409 9.066 51.733 26.611zm-71.974-163.691c0 7.245-5.894 13.14-13.139 13.14s-13.14-5.895-13.14-13.14c0-7.235 5.879-13.122 13.111-13.138h.058c7.232.016 13.11 5.903 13.11 13.138zm-78.795 0c0 7.245-5.895 13.14-13.14 13.14s-13.14-5.895-13.14-13.14c0-7.235 5.879-13.122 13.111-13.138h.058c7.232.016 13.111 5.903 13.111 13.138zm-78-51.553c0-.74.602-1.341 1.342-1.341h33.771v19.755h-33.771c-.74 0-1.342-.602-1.342-1.342zm93.365-1.342v19.756h-38.252v-19.755h38.252zm10.109-72.392c6.118 4.423 16.88 14.013 22.419 29.724 2.821 8.002 4.113 16.41 4.704 22.668h-54.254c.587-6.233 1.878-14.617 4.717-22.668 5.542-15.721 16.314-25.312 22.414-29.724zm101.914 72.392c.74 0 1.342.602 1.342 1.341v17.072c0 .74-.602 1.342-1.342 1.342h-31.233v-19.755zm-51.233 19.756h-40.79v-19.755h40.79zm32.397-39.756h-35.872c-.621-7.665-2.157-18.63-5.925-29.318-3.512-9.962-8.551-18.03-13.778-24.41 28.419 3.489 51.16 25.601 55.575 53.728zm-110.552-53.757c-5.235 6.385-10.285 14.461-13.802 24.439-3.768 10.689-5.304 21.653-5.925 29.318h-36.096c4.428-28.208 27.288-50.365 55.823-53.757zm-48.174 207.448c-2.7-5.914-5.761-12.616-11.193-18.294-15.771-16.495-18.31-38.57-6.618-57.621 2.869-4.689 4.854-9.175 6.084-13.769.156-.597.545-2.581.864-4.25h17.478c-1.748 4.031-2.722 8.472-2.722 13.138 0 18.273 14.866 33.14 33.14 33.14s33.14-14.866 33.14-33.14c0-4.666-.974-9.107-2.722-13.138h17.961c-1.748 4.031-2.722 8.472-2.722 13.138 0 18.273 14.866 33.14 33.14 33.14 18.272 0 33.139-14.866 33.139-33.14 0-4.666-.974-9.107-2.722-13.138h16.033c.321 1.676.715 3.677.88 4.309 1.217 4.538 3.202 9.023 6.077 13.722 11.684 19.039 9.146 41.114-6.625 57.609-.001.001-.002.002-.003.003-5.416 5.669-8.473 12.357-11.169 18.258-1.449 3.172-2.818 6.169-4.426 8.774-4.328 7.027-10.711 14.013-18.453 20.199-14.299 11.413-32.355 17.969-50.932 18.495-32.291.677-64.126-17.875-77.629-47.435zm2.495 56.337.004 9.307v12.07c-11.751.561-32.163 1.961-51.174 5.35 14.196-17.523 37.645-24.232 51.17-26.727zm-134.602 108.206c8.871-15.176 20.888-28.759 34.752-39.281.099-.075.197-.152.293-.231 8.164-6.691 18.188-12.296 29.831-16.688 9.94 2.851 44.293 13.679 77.757 35.668 5.849 3.846 11.54 7.94 17.009 12.311 11.058 8.84 24.381 14.481 38.317 16.363v71.762h-153.107v-20.115c0-5.523-4.477-10-10-10s-10 4.477-10 10v20.115h-51.455c2.725-16.896 9.93-51.145 26.603-79.904z"/><path d="m256.368 268.088c27.803 0 49.582-15.564 49.582-35.433s-21.779-35.434-49.582-35.434-49.582 15.564-49.582 35.434 21.778 35.433 49.582 35.433zm0-50.867c16.931 0 29.582 8.148 29.582 15.434s-12.651 15.433-29.582 15.433-29.582-8.148-29.582-15.433 12.651-15.434 29.582-15.434z"/><path d="m451.311 383.611c2.068 5.044 8.036 7.491 13.061 5.41 5.033-2.085 7.493-8.027 5.41-13.06-2.084-5.034-8.038-7.475-13.061-5.4-5.026 2.078-7.505 8.021-5.41 13.05z"/></svg>