<svg height="512pt" viewBox="-66 0 512 512" width="512pt" xmlns="http://www.w3.org/2000/svg"><path d="m380 64.421875v383.15625c0 35.523437-28.898438 64.421875-64.421875 64.421875h-251.148437c-35.53125 0-64.429688-28.898438-64.429688-64.421875v-383.15625c0-35.523437 28.898438-64.421875 64.429688-64.421875h51.710937l14.589844 10 15.410156-10h87.71875l15.96875 10 14.03125-10h51.71875c35.523437 0 64.421875 28.898438 64.421875 64.421875zm0 0" fill="#ffdd2b"/><path d="m380 64.421875v383.15625c0 35.523437-28.898438 64.421875-64.421875 64.421875h-125.578125v-512h43.859375l15.96875 10 14.03125-10h51.71875c35.523437 0 64.421875 28.898438 64.421875 64.421875zm0 0" fill="#ffc200"/><path d="m330.820312 64.371094v383.339844c0 10.507812-8.550781 19.058593-19.050781 19.058593h-244.570312c-10.5 0-19.050781-8.550781-19.050781-19.058593v-383.339844c0-10.511719 8.550781-19.0625 19.050781-19.0625h244.570312c10.5 0 19.050781 8.550781 19.050781 19.0625zm0 0" fill="#fff"/><path d="m330.820312 64.371094v383.339844c0 10.507812-8.550781 19.058593-19.050781 19.058593h-121.769531v-421.460937h121.769531c10.5 0 19.050781 8.550781 19.050781 19.0625zm0 0" fill="#ebeaf0"/><path d="m239.148438 241.980469c0 27.121093-22.039063 49.179687-49.148438 49.179687-27.101562 0-49.140625-22.058594-49.140625-49.179687 0-8.058594 3.21875-18.171875 10.128906-31.808594 6.53125-12.890625 15.0625-26.292969 21.0625-35.261719 4.019531-6.011718 10.71875-9.601562 17.949219-9.601562h.011719c7.21875 0 13.929687 3.589844 17.949219 9.589844 31.1875 46.652343 31.1875 62.023437 31.1875 67.082031zm0 0" fill="#50fcff"/><path d="m255.320312 325.539062c0 8.28125-6.710937 15-15 15h-101.671874c-8.289063 0-15-6.71875-15-15 0-8.289062 6.710937-15 15-15h101.671874c8.289063 0 15 6.710938 15 15zm0 0" fill="#e1e0e6"/><path d="m235.320312 370.539062c0 8.28125-6.710937 15-15 15h-61.671874c-8.289063 0-15-6.71875-15-15 0-8.289062 6.710937-15 15-15h61.671874c8.289063 0 15 6.710938 15 15zm0 0" fill="#e1e0e6"/><path d="m233.859375 0v76.789062c0 3.960938-3.230469 7.191407-7.1875 7.191407h-73.332031c-3.96875 0-7.199219-3.230469-7.199219-7.191407v-76.789062h-30v76.789062c0 20.511719 16.6875 37.191407 37.199219 37.191407h73.332031c20.507813 0 37.1875-16.679688 37.1875-37.191407v-76.789062zm0 0" fill="#007dcc"/><path d="m235.320312 370.539062c0 8.28125-6.710937 15-15 15h-30.320312v-30h30.320312c8.289063 0 15 6.710938 15 15zm0 0" fill="#d5d1d5"/><path d="m190 291.160156v-125.851562h.011719c7.21875 0 13.929687 3.589844 17.949219 9.589844 31.1875 46.652343 31.1875 62.023437 31.1875 67.082031 0 27.121093-22.039063 49.179687-49.148438 49.179687zm0 0" fill="#00e3f8"/><path d="m255.320312 325.539062c0 8.28125-6.710937 15-15 15h-50.320312v-30h50.320312c8.289063 0 15 6.710938 15 15zm0 0" fill="#d5d1d5"/><path d="m263.859375 0v76.789062c0 20.511719-16.679687 37.191407-37.1875 37.191407h-36.671875v-30h36.671875c3.957031 0 7.1875-3.230469 7.1875-7.191407v-76.789062zm0 0" fill="#005389"/></svg>