<svg id="Layer_5" enable-background="new 0 0 64 64" height="512" viewBox="0 0 64 64" width="512" xmlns="http://www.w3.org/2000/svg"><path d="m62 2v42h-8v-30-4h-24v-8z" fill="#ffeaa7"/><path d="m22 10h32v42h-32z" fill="#e6e9ed"/><path d="m40 40v6l-2.45.82c-.42 1.86-1.16 3.61-2.15 5.18l1.16 2.31-4.25 4.25-2.31-1.16c-1.57.99-3.32 1.73-5.18 2.15l-.82 2.45h-6l-.82-2.45c-1.86-.42-3.61-1.16-5.18-2.15l-2.31 1.16-4.25-4.25 1.16-2.31c-.99-1.57-1.73-3.32-2.15-5.18l-2.45-.82v-6l2.45-.82c.42-1.86 1.16-3.61 2.15-5.18l-1.16-2.31 4.25-4.25 2.31 1.16c1.57-.99 3.32-1.73 5.18-2.15l.82-2.45h4 2l.82 2.45c1.86.42 3.61 1.16 5.18 2.15l2.31-1.16 4.25 4.25-1.16 2.31c.99 1.57 1.73 3.32 2.15 5.18z" fill="#ffc729"/><path d="m21 30c7.18 0 13 5.82 13 13s-5.82 13-13 13-13-5.82-13-13 5.82-13 13-13z" fill="#fcd770"/><path d="m23 35.81c-.01.12-.02.32-.03.44l-.85 6.76c-.07.56-.55.99-1.12.99s-1.05-.43-1.12-.99l-.85-6.76c-.01-.12-.02-.32-.03-.44 0-1 .81-1.81 1.81-1.81h.38c1 0 1.81.81 1.81 1.81z" fill="#ff826e"/><circle cx="21" cy="50" fill="#ff826e" r="2"/><path d="m21 29c-7.72 0-14 6.28-14 14s6.28 14 14 14 14-6.28 14-14-6.28-14-14-14zm0 26c-6.617 0-12-5.383-12-12s5.383-12 12-12 12 5.383 12 12-5.383 12-12 12z"/><path d="m13.016 43.506-1.996.125c.046.742.175 1.477.382 2.185l1.92-.562c-.166-.566-.269-1.154-.306-1.748z"/><path d="m12.26 47.862c.361.647.794 1.254 1.287 1.805l1.49-1.334c-.395-.44-.742-.927-1.031-1.445z"/><path d="m13.572 40.023-1.856-.744c-.275.688-.474 1.407-.591 2.139l1.976.314c.092-.585.251-1.16.471-1.709z"/><path d="m21.188 33h-.375c-1.551 0-2.813 1.262-2.813 2.812l.89 7.311c.126 1.07 1.032 1.877 2.11 1.877s1.984-.807 2.109-1.867l.862-6.824.029-.497c0-1.55-1.262-2.812-2.812-2.812zm-.064 9.891c-.015.125-.231.135-.248-.01l-.85-6.695-.026-.399c.014-.436.373-.787.812-.787h.375c.448 0 .812.364.814.752z"/><path d="m21 47c-1.654 0-3 1.346-3 3s1.346 3 3 3 3-1.346 3-3-1.346-3-3-3zm0 4c-.551 0-1-.448-1-1s.449-1 1-1 1 .448 1 1-.449 1-1 1z"/><path d="m63 1h-34v8h-8v14h-3.721l-.869 2.606c-1.561.411-3.057 1.032-4.46 1.852l-2.461-1.231-5.262 5.263 1.23 2.461c-.819 1.403-1.44 2.899-1.851 4.46l-2.606.868v7.441l2.606.869c.411 1.561 1.032 3.057 1.851 4.46l-1.23 2.461 5.262 5.263 2.461-1.231c1.403.819 2.899 1.44 4.46 1.852l.869 2.606h7.441l.869-2.606c1.561-.411 3.057-1.032 4.46-1.852l2.461 1.231 5.262-5.263-.754-1.51h17.982v-8h8zm-30.884 56.34-2.168-1.084-.476.298c-1.514.948-3.156 1.63-4.881 2.026l-.547.126-.765 2.294h-4.559l-.765-2.294-.547-.126c-1.725-.396-3.367-1.078-4.881-2.026l-.476-.298-2.167 1.084-3.223-3.224 1.083-2.167-.298-.477c-.949-1.514-1.63-3.156-2.026-4.881l-.125-.548-2.295-.764v-4.559l2.294-.765.125-.548c.396-1.725 1.078-3.367 2.026-4.881l.298-.477-1.083-2.167 3.223-3.224 2.168 1.084.476-.298c1.514-.948 3.156-1.63 4.881-2.026l.547-.126.766-2.292h4.559l.765 2.294.547.126c1.725.396 3.367 1.078 4.881 2.026l.476.298 2.168-1.084 3.223 3.224-1.083 2.167.298.477c.949 1.514 1.63 3.156 2.026 4.881l.125.548 2.294.764v4.559l-2.294.765-.125.548c-.396 1.725-1.078 3.367-2.026 4.881l-.298.477 1.083 2.167zm20.884-6.34h-15.891c.544-1.092.974-2.233 1.285-3.41l2.606-.869v-7.441l-2.606-.869c-.411-1.561-1.032-3.057-1.851-4.46l1.23-2.461-5.262-5.263-2.461 1.231c-1.403-.819-2.899-1.44-4.46-1.852l-.869-2.606h-1.721v-12h30zm8-8h-6v-34h-24v-6h30z"/><path d="m27 21.5c0 1.93 1.57 3.5 3.5 3.5h.5v-2h-.5c-.827 0-1.5-.673-1.5-1.5 0-.98-.407-1.864-1.058-2.5.651-.636 1.058-1.52 1.058-2.5 0-.827.673-1.5 1.5-1.5h.5v-2h-.5c-1.93 0-3.5 1.57-3.5 3.5 0 .827-.673 1.5-1.5 1.5h-.5v2h.5c.827 0 1.5.673 1.5 1.5z"/><path d="m49 40.5c0-1.93-1.57-3.5-3.5-3.5h-.5v2h.5c.827 0 1.5.673 1.5 1.5 0 .98.407 1.864 1.058 2.5-.651.636-1.058 1.52-1.058 2.5 0 .827-.673 1.5-1.5 1.5h-.5v2h.5c1.93 0 3.5-1.57 3.5-3.5 0-.827.673-1.5 1.5-1.5h.5v-2h-.5c-.827 0-1.5-.673-1.5-1.5z"/><path d="m33 13h18v2h-18z"/><path d="m33 17h14v2h-14z"/><path d="m49 17h2v2h-2z"/><path d="m33 21h18v2h-18z"/><path d="m41 25h10v2h-10z"/><path d="m41 29h10v2h-10z"/><path d="m41 33h10v2h-10z"/></svg>